<svg xmlns="http://www.w3.org/2000/svg" xmlns:xlink="http://www.w3.org/1999/xlink" viewBox="0 0 520 325"><defs><style>.cls-1,.cls-8{fill:#fff;}.cls-2{opacity:0.4;}.cls-3,.cls-4{fill:#06033e;}.cls-4{opacity:0.7;}.cls-11,.cls-12,.cls-5,.cls-6{fill:none;}.cls-11,.cls-14,.cls-5,.cls-6,.cls-7,.cls-8{stroke:#1a2e35;}.cls-10,.cls-11,.cls-12,.cls-14,.cls-5,.cls-7,.cls-8{stroke-linecap:round;stroke-linejoin:round;}.cls-6{stroke-miterlimit:10;}.cls-10,.cls-13,.cls-7{fill:#1a2e35;}.cls-9{fill:url(#Áåçûìÿííûé_ãðàäèåíò_33);}.cls-10,.cls-12{stroke:#fff;}.cls-11,.cls-12{stroke-width:3px;}.cls-14{fill:#5ae4a7;}.cls-15{fill:#5c6bbf;}.cls-16{fill:#3949aa;}.cls-17{fill:#283593;}.cls-18{fill:#fefefe;}</style><linearGradient id="Áåçûìÿííûé_ãðàäèåíò_33" x1="144.3" y1="143.96" x2="380.84" y2="143.96" gradientUnits="userSpaceOnUse"><stop offset="0" stop-color="#e39a65"/><stop offset="1" stop-color="#e95f8d"/></linearGradient></defs><g id="Layer_4" data-name="Layer 4"><rect class="cls-1" width="520.92" height="325"/><g class="cls-2"><path class="cls-3" d="M464.68,188.89c-4.57,38.66-22.22,83.6-57.47,104.25-53.26,31.2-48.8,79.19-152.76,100.06a214,214,0,0,1-46.09,4.35,177.46,177.46,0,0,1-22.63-1.84c-66.07-9.65-110.53-55.58-126.84-111-21.47-72.91,21.39-120.64,49.8-149.4S157.91,16.92,260-4.4a207.13,207.13,0,0,1,47.37-4.5C343.63-8,383.23,3.91,410.63,28.79c2.05,1.87,4.06,3.81,6,5.81C454.72,73.69,470.9,136.2,464.68,188.89Z"/><path class="cls-4" d="M464.68,188.89c-4.57,38.66-22.22,83.6-57.47,104.25-53.26,31.2-48.8,79.19-152.76,100.06a214,214,0,0,1-46.09,4.35,177.46,177.46,0,0,1-22.63-1.84c-66.07-9.65-110.53-55.58-126.84-111-21.47-72.91,21.39-120.64,49.8-149.4S157.91,16.92,260-4.4a207.13,207.13,0,0,1,47.37-4.5C343.63-8,383.23,3.91,410.63,28.79c2.05,1.87,4.06,3.81,6,5.81C454.72,73.69,470.9,136.2,464.68,188.89Z"/></g><line class="cls-5" x1="458" y1="230.17" x2="472.04" y2="230.17"/><line class="cls-5" x1="50.01" y1="230.17" x2="451.7" y2="230.17"/><path class="cls-6" d="M436.43,121.89v-7.24l-6.93-1a25.29,25.29,0,0,0-4-9.7l4.21-5.63-5.12-5.12L419,97.42a25.1,25.1,0,0,0-9.68-4l-1-7H401.1l-1,6.93a25,25,0,0,0-9.7,4l-5.62-4.22-5.12,5.12,4.2,5.61a25,25,0,0,0-4,9.67l-7,1v7.23l6.93,1a25.26,25.26,0,0,0,4,9.7l-4.21,5.62,5.12,5.12,5.6-4.2a25.25,25.25,0,0,0,9.67,4l1,7h7.24l1-6.94a25,25,0,0,0,9.7-4l5.62,4.22,5.12-5.12-4.2-5.6a25.05,25.05,0,0,0,4-9.68Zm-31.78,13.86A17.55,17.55,0,1,1,422.2,118.2,17.55,17.55,0,0,1,404.65,135.75Z"/><path class="cls-6" d="M456.49,165.08V159.9l-4.95-.71a18,18,0,0,0-2.85-6.93l3-4L448,144.58l-4,3a18.1,18.1,0,0,0-6.92-2.89l-.71-5h-5.18l-.71,5a18,18,0,0,0-6.94,2.85l-4-3-3.66,3.66,3,4a17.79,17.79,0,0,0-2.89,6.92l-5,.71V165l5,.71a17.77,17.77,0,0,0,2.85,6.93l-3,4,3.66,3.67,4-3a17.88,17.88,0,0,0,6.92,2.89l.71,5h5.17l.71-5a18,18,0,0,0,6.94-2.85l4,3,3.66-3.66-3-4a18.1,18.1,0,0,0,2.89-6.92ZM433.77,175a12.55,12.55,0,1,1,12.55-12.55A12.55,12.55,0,0,1,433.77,175Z"/><path class="cls-6" d="M90.63,161.52v6.6L97,169a22.93,22.93,0,0,0,3.64,8.85L96.74,183l4.67,4.67,5.11-3.83a23.08,23.08,0,0,0,8.83,3.69l.91,6.35h6.6l.91-6.33a23.07,23.07,0,0,0,8.85-3.63l5.13,3.84,4.67-4.67L138.59,178a23,23,0,0,0,3.69-8.83l6.35-.91v-6.6l-6.33-.91a23.14,23.14,0,0,0-3.63-8.85l3.84-5.13-4.67-4.67-5.11,3.83a22.85,22.85,0,0,0-8.83-3.68l-.91-6.35h-6.6l-.91,6.32a23,23,0,0,0-8.85,3.64L101.5,142l-4.67,4.67,3.83,5.11A22.91,22.91,0,0,0,97,160.61Zm29-12.65a16,16,0,1,1-16,16A16,16,0,0,1,119.63,148.87Z"/><path class="cls-6" d="M74.28,125.56v4l3.86.55a14,14,0,0,0,2.22,5.4L78,138.67l2.85,2.85L84,139.18a14,14,0,0,0,5.39,2.25l.55,3.88h4l.55-3.86a14,14,0,0,0,5.4-2.22l3.13,2.35,2.85-2.85-2.34-3.12a14,14,0,0,0,2.25-5.39l3.87-.55v-4l-3.86-.55a13.78,13.78,0,0,0-2.21-5.4l2.35-3.13-2.85-2.85L100,116.05a14,14,0,0,0-5.39-2.25L94,109.93H90l-.55,3.86a13.78,13.78,0,0,0-5.4,2.21l-3.13-2.35-2.85,2.85,2.34,3.12A14,14,0,0,0,78.16,125ZM92,117.85a9.77,9.77,0,1,1-9.76,9.77A9.76,9.76,0,0,1,92,117.85Z"/><path class="cls-6" d="M229.5,52v5.54l5.3.76a19.12,19.12,0,0,0,3,7.41L234.62,70,238.54,74l4.28-3.21a19.25,19.25,0,0,0,7.39,3.09l.76,5.32h5.54l.76-5.3a19.26,19.26,0,0,0,7.41-3L269,74l3.91-3.91-3.21-4.29a19.25,19.25,0,0,0,3.09-7.39l5.32-.76V52.14l-5.3-.75A19.16,19.16,0,0,0,269.74,44l3.23-4.3-3.92-3.91L264.77,39a19.25,19.25,0,0,0-7.39-3.09l-.76-5.32h-5.54l-.76,5.3a19.27,19.27,0,0,0-7.41,3l-4.3-3.23L234.7,39.6l3.21,4.28a19.25,19.25,0,0,0-3.09,7.39Zm24.29-10.59a13.42,13.42,0,1,1-13.41,13.42A13.42,13.42,0,0,1,253.79,41.44Z"/><path class="cls-7" d="M136,51.76h253.2a8,8,0,0,1,8,8V236.16a0,0,0,0,1,0,0H128a0,0,0,0,1,0,0V59.73A8,8,0,0,1,136,51.76Z"/><polygon class="cls-8" points="437.51 317.69 87.63 317.69 128 236.16 397.14 236.16 437.51 317.69"/><rect class="cls-9" x="144.3" y="66.36" width="236.53" height="155.21"/><polygon class="cls-10" points="251.34 261.97 251.81 252.04 237.59 252.04 236.65 261.97 251.34 261.97"/><polygon class="cls-10" points="280.74 261.97 280.25 252.04 266.03 252.04 266.04 261.97 280.74 261.97"/><polygon class="cls-10" points="357.28 272.59 372.48 272.59 368.91 261.97 354.22 261.97 357.28 272.59"/><polygon class="cls-10" points="236.65 261.97 237.59 252.04 223.37 252.04 221.95 261.97 236.65 261.97"/><polygon class="cls-10" points="207.25 261.97 209.15 252.04 194.93 252.04 192.56 261.97 207.25 261.97"/><polygon class="cls-10" points="339.52 261.97 337.13 252.04 322.91 252.04 324.82 261.97 339.52 261.97"/><polygon class="cls-10" points="354.22 261.97 351.36 252.04 337.13 252.04 339.52 261.97 354.22 261.97"/><polygon class="cls-10" points="192.56 261.97 194.93 252.04 180.71 252.04 177.86 261.97 192.56 261.97"/><polygon class="cls-10" points="295.43 261.97 294.47 252.04 280.25 252.04 280.74 261.97 295.43 261.97"/><polygon class="cls-10" points="368.91 261.97 365.57 252.04 351.36 252.04 354.22 261.97 368.91 261.97"/><polygon class="cls-10" points="324.82 261.97 322.91 252.04 308.69 252.04 310.13 261.97 324.82 261.97"/><polygon class="cls-10" points="310.13 261.97 308.69 252.04 294.47 252.04 295.43 261.97 310.13 261.97"/><polygon class="cls-10" points="266.04 261.97 266.03 252.04 251.81 252.04 251.34 261.97 266.04 261.97"/><polygon class="cls-10" points="163.17 261.97 148.47 261.97 144.41 272.59 159.62 272.59 163.17 261.97"/><polygon class="cls-10" points="166.49 252.04 152.27 252.04 148.47 261.97 163.17 261.97 166.49 252.04"/><polygon class="cls-10" points="177.86 261.97 180.71 252.04 166.49 252.04 163.17 261.97 177.86 261.97"/><polygon class="cls-10" points="140.06 283.97 135.39 296.2 151.73 296.2 155.81 283.97 140.06 283.97"/><polygon class="cls-10" points="159.62 272.59 144.41 272.59 140.06 283.97 155.81 283.97 159.62 272.59"/><polygon class="cls-10" points="155.81 283.97 151.73 296.2 168.06 296.2 171.56 283.97 155.81 283.97"/><polygon class="cls-10" points="221.95 261.97 223.37 252.04 209.15 252.04 207.25 261.97 221.95 261.97"/><polygon class="cls-10" points="220.44 272.59 221.95 261.97 207.25 261.97 205.23 272.59 220.44 272.59"/><polygon class="cls-10" points="205.23 272.59 207.25 261.97 192.56 261.97 190.03 272.59 205.23 272.59"/><polygon class="cls-10" points="235.64 272.59 236.65 261.97 221.95 261.97 220.44 272.59 235.64 272.59"/><polygon class="cls-10" points="177.86 261.97 163.17 261.97 159.62 272.59 174.82 272.59 177.86 261.97"/><polygon class="cls-10" points="360.56 283.97 376.31 283.97 372.48 272.59 357.28 272.59 360.56 283.97"/><polygon class="cls-10" points="190.03 272.59 192.56 261.97 177.86 261.97 174.82 272.59 190.03 272.59"/><polygon class="cls-10" points="159.62 272.59 155.81 283.97 171.56 283.97 174.82 272.59 159.62 272.59"/><polygon class="cls-10" points="326.87 272.59 324.82 261.97 310.13 261.97 311.66 272.59 326.87 272.59"/><polygon class="cls-10" points="311.66 272.59 310.13 261.97 295.43 261.97 296.46 272.59 311.66 272.59"/><polygon class="cls-10" points="357.28 272.59 354.22 261.97 339.52 261.97 342.07 272.59 357.28 272.59"/><polygon class="cls-10" points="266.05 272.59 266.04 261.97 251.34 261.97 250.84 272.59 266.05 272.59"/><polygon class="cls-10" points="296.46 272.59 295.43 261.97 280.74 261.97 281.25 272.59 296.46 272.59"/><polygon class="cls-10" points="281.25 272.59 280.74 261.97 266.04 261.97 266.05 272.59 281.25 272.59"/><polygon class="cls-10" points="250.84 272.59 251.34 261.97 236.65 261.97 235.64 272.59 250.84 272.59"/><polygon class="cls-10" points="296.46 272.59 297.56 283.97 313.31 283.97 311.66 272.59 296.46 272.59"/><polygon class="cls-10" points="311.66 272.59 313.31 283.97 329.06 283.97 326.87 272.59 311.66 272.59"/><polygon class="cls-10" points="174.82 272.59 171.56 283.97 187.31 283.97 190.03 272.59 174.82 272.59"/><polygon class="cls-10" points="326.87 272.59 329.06 283.97 344.81 283.97 342.07 272.59 326.87 272.59"/><polygon class="cls-10" points="266.05 272.59 266.06 283.97 281.81 283.97 281.25 272.59 266.05 272.59"/><polygon class="cls-10" points="342.07 272.59 344.81 283.97 360.56 283.97 357.28 272.59 342.07 272.59"/><polygon class="cls-10" points="281.25 272.59 281.81 283.97 297.56 283.97 296.46 272.59 281.25 272.59"/><polygon class="cls-10" points="205.23 272.59 203.06 283.97 218.81 283.97 220.44 272.59 205.23 272.59"/><polygon class="cls-10" points="190.03 272.59 187.31 283.97 203.06 283.97 205.23 272.59 190.03 272.59"/><polygon class="cls-10" points="250.84 272.59 250.31 283.97 266.06 283.97 266.05 272.59 250.84 272.59"/><polygon class="cls-10" points="235.64 272.59 234.56 283.97 250.31 283.97 250.84 272.59 235.64 272.59"/><polygon class="cls-10" points="220.44 272.59 218.81 283.97 234.56 283.97 235.64 272.59 220.44 272.59"/><polygon class="cls-10" points="342.07 272.59 339.52 261.97 324.82 261.97 326.87 272.59 342.07 272.59"/><polygon class="cls-10" points="166.49 252.04 169.88 241.87 156.15 241.87 152.27 252.04 166.49 252.04"/><polygon class="cls-10" points="152.27 252.04 139.14 252.04 134.91 261.97 148.47 261.97 152.27 252.04"/><polygon class="cls-10" points="156.15 241.87 143.47 241.87 139.14 252.04 152.27 252.04 156.15 241.87"/><polygon class="cls-10" points="148.47 261.97 134.91 261.97 130.38 272.59 144.41 272.59 148.47 261.97"/><polygon class="cls-10" points="144.41 272.59 130.38 272.59 125.53 283.97 140.06 283.97 144.41 272.59"/><polygon class="cls-10" points="140.06 283.97 125.53 283.97 120.31 296.2 135.39 296.2 140.06 283.97"/><polygon class="cls-10" points="383.61 261.97 387.69 272.59 401.14 272.59 396.61 261.97 383.61 261.97"/><polygon class="cls-10" points="392.06 283.97 405.99 283.97 401.14 272.59 387.69 272.59 392.06 283.97"/><polygon class="cls-10" points="396.75 296.2 411.2 296.2 405.99 283.97 392.06 283.97 396.75 296.2"/><polygon class="cls-10" points="280.25 252.04 279.76 241.87 266.02 241.87 266.03 252.04 280.25 252.04"/><polygon class="cls-10" points="383.61 261.97 396.61 261.97 392.38 252.04 379.8 252.04 383.61 261.97"/><polygon class="cls-10" points="376.31 283.97 392.06 283.97 387.69 272.59 372.48 272.59 376.31 283.97"/><polygon class="cls-10" points="180.71 252.04 183.62 241.87 169.88 241.87 166.49 252.04 180.71 252.04"/><polygon class="cls-10" points="365.57 252.04 368.91 261.97 383.61 261.97 379.8 252.04 365.57 252.04"/><polygon class="cls-10" points="392.38 252.04 388.04 241.87 375.89 241.87 379.8 252.04 392.38 252.04"/><polygon class="cls-10" points="379.8 252.04 375.89 241.87 362.16 241.87 365.57 252.04 379.8 252.04"/><polygon class="cls-10" points="329.06 283.97 331.41 296.2 347.75 296.2 344.81 283.97 329.06 283.97"/><polygon class="cls-10" points="380.42 296.2 396.75 296.2 392.06 283.97 376.31 283.97 380.42 296.2"/><polygon class="cls-10" points="365.57 252.04 362.16 241.87 348.43 241.87 351.36 252.04 365.57 252.04"/><polygon class="cls-10" points="360.56 283.97 364.08 296.2 380.42 296.2 376.31 283.97 360.56 283.97"/><polygon class="cls-10" points="344.81 283.97 347.75 296.2 364.08 296.2 360.56 283.97 344.81 283.97"/><polygon class="cls-10" points="372.48 272.59 387.69 272.59 383.61 261.97 368.91 261.97 372.48 272.59"/><polygon class="cls-10" points="237.59 252.04 238.55 241.87 224.82 241.87 223.37 252.04 237.59 252.04"/><polygon class="cls-10" points="351.36 252.04 348.43 241.87 334.69 241.87 337.13 252.04 351.36 252.04"/><polygon class="cls-10" points="223.37 252.04 224.82 241.87 211.09 241.87 209.15 252.04 223.37 252.04"/><polygon class="cls-10" points="266.03 252.04 266.02 241.87 252.29 241.87 251.81 252.04 266.03 252.04"/><polygon class="cls-10" points="209.15 252.04 211.09 241.87 197.35 241.87 194.93 252.04 209.15 252.04"/><polygon class="cls-10" points="194.93 252.04 197.35 241.87 183.62 241.87 180.71 252.04 194.93 252.04"/><polygon class="cls-10" points="251.81 252.04 252.29 241.87 238.55 241.87 237.59 252.04 251.81 252.04"/><polygon class="cls-10" points="337.13 252.04 334.69 241.87 320.96 241.87 322.91 252.04 337.13 252.04"/><polygon class="cls-10" points="322.91 252.04 320.96 241.87 307.22 241.87 308.69 252.04 322.91 252.04"/><polygon class="cls-10" points="294.47 252.04 293.49 241.87 279.76 241.87 280.25 252.04 294.47 252.04"/><polygon class="cls-10" points="329.06 283.97 313.31 283.97 297.56 283.97 281.81 283.97 266.06 283.97 250.31 283.97 234.56 283.97 218.81 283.97 203.06 283.97 187.31 283.97 171.56 283.97 168.06 296.2 184.4 296.2 200.73 296.2 217.07 296.2 233.4 296.2 249.74 296.2 266.07 296.2 282.41 296.2 298.74 296.2 315.08 296.2 331.41 296.2 329.06 283.97"/><polygon class="cls-10" points="308.69 252.04 307.22 241.87 293.49 241.87 294.47 252.04 308.69 252.04"/><rect class="cls-7" x="87.63" y="317.69" width="350.04" height="4.97"/><line class="cls-11" x1="159.55" y1="78.6" x2="174.8" y2="78.6"/><line class="cls-12" x1="159.55" y1="86.43" x2="216.84" y2="86.43"/><line class="cls-12" x1="248.16" y1="86.43" x2="305.45" y2="86.43"/><line class="cls-11" x1="220.55" y1="86.43" x2="243.22" y2="86.43"/><line class="cls-11" x1="159.55" y1="94.26" x2="192.53" y2="94.26"/><line class="cls-11" x1="196.65" y1="94.26" x2="229.62" y2="94.26"/><line class="cls-11" x1="233.74" y1="94.26" x2="266.71" y2="94.26"/><line class="cls-11" x1="270.83" y1="94.26" x2="284.85" y2="94.26"/><line class="cls-11" x1="178.92" y1="78.6" x2="194.17" y2="78.6"/><line class="cls-11" x1="269.6" y1="78.6" x2="284.85" y2="78.6"/><line class="cls-12" x1="249.4" y1="78.6" x2="264.65" y2="78.6"/><line class="cls-11" x1="198.3" y1="78.6" x2="242.81" y2="78.6"/><line class="cls-11" x1="159.55" y1="126.41" x2="174.8" y2="126.41"/><line class="cls-12" x1="159.55" y1="134.24" x2="216.84" y2="134.24"/><line class="cls-11" x1="248.16" y1="134.24" x2="305.45" y2="134.24"/><line class="cls-11" x1="220.55" y1="134.24" x2="243.22" y2="134.24"/><line class="cls-11" x1="159.55" y1="142.07" x2="192.53" y2="142.07"/><line class="cls-11" x1="196.65" y1="142.07" x2="229.62" y2="142.07"/><line class="cls-12" x1="233.74" y1="142.07" x2="266.71" y2="142.07"/><line class="cls-11" x1="270.83" y1="142.07" x2="284.85" y2="142.07"/><line class="cls-11" x1="178.92" y1="126.41" x2="194.17" y2="126.41"/><line class="cls-11" x1="269.6" y1="126.41" x2="284.85" y2="126.41"/><line class="cls-12" x1="249.4" y1="126.41" x2="264.65" y2="126.41"/><line class="cls-11" x1="198.3" y1="126.41" x2="242.81" y2="126.41"/><line class="cls-11" x1="159.55" y1="196.88" x2="174.8" y2="196.88"/><line class="cls-12" x1="159.55" y1="204.71" x2="216.84" y2="204.71"/><line class="cls-11" x1="248.16" y1="204.71" x2="305.45" y2="204.71"/><line class="cls-11" x1="220.55" y1="204.71" x2="243.22" y2="204.71"/><line class="cls-11" x1="159.55" y1="212.54" x2="192.53" y2="212.54"/><line class="cls-11" x1="196.65" y1="212.54" x2="229.62" y2="212.54"/><line class="cls-12" x1="233.74" y1="212.54" x2="266.71" y2="212.54"/><line class="cls-11" x1="270.83" y1="212.54" x2="284.85" y2="212.54"/><line class="cls-11" x1="178.92" y1="196.88" x2="194.17" y2="196.88"/><line class="cls-11" x1="269.6" y1="196.88" x2="284.85" y2="196.88"/><line class="cls-12" x1="249.4" y1="196.88" x2="264.65" y2="196.88"/><line class="cls-11" x1="198.3" y1="196.88" x2="242.81" y2="196.88"/><line class="cls-11" x1="245.28" y1="102.5" x2="260.53" y2="102.5"/><line class="cls-11" x1="225.08" y1="102.5" x2="240.33" y2="102.5"/><line class="cls-11" x1="173.98" y1="102.5" x2="218.49" y2="102.5"/><line class="cls-11" x1="245.28" y1="116.51" x2="260.53" y2="116.51"/><line class="cls-11" x1="225.08" y1="116.51" x2="240.33" y2="116.51"/><line class="cls-12" x1="173.98" y1="116.51" x2="218.49" y2="116.51"/><line class="cls-11" x1="189.23" y1="109.51" x2="173.98" y2="109.51"/><line class="cls-11" x1="209.42" y1="109.51" x2="194.17" y2="109.51"/><line class="cls-12" x1="260.53" y1="109.51" x2="216.02" y2="109.51"/><line class="cls-11" x1="245.28" y1="151.55" x2="260.53" y2="151.55"/><line class="cls-11" x1="225.08" y1="151.55" x2="240.33" y2="151.55"/><line class="cls-11" x1="173.98" y1="151.55" x2="218.49" y2="151.55"/><line class="cls-11" x1="245.28" y1="165.56" x2="260.53" y2="165.56"/><line class="cls-11" x1="225.08" y1="165.56" x2="240.33" y2="165.56"/><line class="cls-12" x1="173.98" y1="165.56" x2="218.49" y2="165.56"/><line class="cls-11" x1="189.23" y1="158.55" x2="173.98" y2="158.55"/><line class="cls-11" x1="209.42" y1="158.55" x2="194.17" y2="158.55"/><line class="cls-12" x1="260.53" y1="158.55" x2="216.02" y2="158.55"/><line class="cls-11" x1="189.23" y1="173.8" x2="173.98" y2="173.8"/><line class="cls-11" x1="209.42" y1="173.8" x2="194.17" y2="173.8"/><line class="cls-12" x1="260.53" y1="173.8" x2="216.02" y2="173.8"/><line class="cls-11" x1="189.23" y1="187.82" x2="173.98" y2="187.82"/><line class="cls-11" x1="209.42" y1="187.82" x2="194.17" y2="187.82"/><line class="cls-12" x1="260.53" y1="187.82" x2="216.02" y2="187.82"/><line class="cls-11" x1="245.28" y1="180.81" x2="260.53" y2="180.81"/><line class="cls-11" x1="225.08" y1="180.81" x2="240.33" y2="180.81"/><line class="cls-12" x1="173.98" y1="180.81" x2="218.49" y2="180.81"/><rect class="cls-13" x="149.03" y="75.88" width="4.87" height="4.81"/><rect class="cls-13" x="149.03" y="83.78" width="4.87" height="4.81"/><rect class="cls-13" x="149.03" y="91.68" width="4.87" height="4.81"/><rect class="cls-13" x="149.03" y="99.58" width="4.87" height="4.81"/><rect class="cls-13" x="149.03" y="107.48" width="4.87" height="4.81"/><rect class="cls-13" x="149.03" y="115.38" width="4.87" height="4.81"/><rect class="cls-13" x="149.03" y="123.28" width="4.87" height="4.81"/><rect class="cls-13" x="149.03" y="131.18" width="4.87" height="4.81"/><rect class="cls-13" x="149.03" y="139.08" width="4.87" height="4.81"/><rect class="cls-13" x="149.03" y="146.98" width="4.87" height="4.81"/><rect class="cls-13" x="149.03" y="154.88" width="4.87" height="4.81"/><rect class="cls-13" x="149.03" y="162.78" width="4.87" height="4.81"/><rect class="cls-13" x="149.03" y="170.68" width="4.87" height="4.81"/><rect class="cls-13" x="149.03" y="178.58" width="4.87" height="4.81"/><rect class="cls-13" x="149.03" y="186.48" width="4.87" height="4.81"/><rect class="cls-13" x="149.03" y="194.38" width="4.87" height="4.81"/><rect class="cls-13" x="149.03" y="202.28" width="4.87" height="4.81"/><rect class="cls-13" x="149.03" y="210.18" width="4.87" height="4.81"/><path class="cls-7" d="M337.82,323.2l32,26.43a45.69,45.69,0,0,0,6.29,10.71c4.41,5.66,56,27.07,56,27.07l8.82,2.52-96.34-72.41Z"/><path class="cls-8" d="M400.19,302.2S391.6,291.7,387.78,285s-9.23-22.27-13.36-31.5-10.19-12.09-17.5-14.95-10.19-2.23-10.19-.32,2.87,5.41,2.87,5.41l-12.41,2.23S332.1,243,328.91,244s-9.22,7-9.22,7-6.37-2.23-10.19-1.27-14.31,6-18.77,8.27-9.23,2.54-8.91,4.45,4.77,5.09,8.91,4.46,11.14-3.18,15.59-3.18,6.69.95,8.91,2.54,11.46,14.64,12.73,16.23,2.55,7.95,2.55,7.95a38.3,38.3,0,0,1-9.11-5.58c-3.5-3.18-8.51-10.64-14.24-11.28s-12,4.45-8.79,7,6.36,4.14,8.59,7,5.73,11.46,11.77,20.68,19.09,15,19.09,15l27.05,11.14s7-16.55,20.05-21S401.78,307,401.78,307Z"/><path class="cls-5" d="M281.82,262.42s3.1-.79,4-1.08a7.32,7.32,0,0,0,1.93-1.2"/><path class="cls-5" d="M319.69,251s14.65,8.2,18.79,10.42c1.7.92,5.73,2.8,7,7a17.69,17.69,0,0,0,4.44,7.6"/><path class="cls-5" d="M337.19,245.88s14.32,11.13,15.27,11.45,4.46.64,6.05,3.5,3.18,6.05,3.18,6.05"/><path class="cls-5" d="M349.6,243.65s5.09-1,7,2.86,10.18,13.05,10.18,13.05"/><path class="cls-5" d="M304.1,284.7s3.81-1.91,1.9-4.78-5.72-2.86-5.72-2.86"/><path class="cls-14" d="M399.55,298.06s-17.18,4.46-28,16.55-10.82,22.27-9.86,23.86,21.64,12.73,21.64,12.73,12.72-24.5,21.63-30.55S420.24,313,420.24,313s-15.91-10.19-16.55-11.46S401.78,297.11,399.55,298.06Z"/><path class="cls-14" d="M447.92,393.84s-17.5-8.91-21.64-11.14l-32.45-17.5a37.66,37.66,0,0,1-5.41-1.91c-1.91-1-4.78-.64-6.05-7.32s1.91-20,16.23-33.41,23.23-12.73,23.23-12.73,6-.63,7.63.64,1.91,5.09,3.5,5.73S478.58,330,478.58,330"/><path class="cls-7" d="M206.34,295.12s-21,24.92-27.27,30a95.17,95.17,0,0,1-12,8.18l-22.67,22.67s.63,3.15-5.66,6.93-18.89,8.18-22,9.44S79,389.3,79,389.3Z"/><path class="cls-8" d="M236.77,257c-2.21.66-10.15.22-10.15.22s-4.85-3.75-7.27-5.95-8.6-15.22-11.69-15.88-16.09,6.84-16.09,6.84S181,237.57,178.34,238s-11.25,8.16-11.25,8.16-11.91-1.77-14.11,1.76-5.73,14.77-9.26,21.83-16.32,25.8-16.32,25.8L125.64,298a100.38,100.38,0,0,1,10.8,5.07c8.16,4.19,21.17,24,21.17,24s18.08-8.38,28.22-13,18.3-14.77,20.51-19,5.95-8.16,10.58-11.91,13.23-5.29,15.22-7.94-1.33-6.61-1.33-6.61a33.42,33.42,0,0,0,3.53-2.21c1.1-.88,5.51-3.31,6-5.95S239,256.31,236.77,257Zm-34,21.17L207,265.35c1.76,1.32,9.48,4.19,9.48,4.19C211.41,270.86,202.81,278.14,202.81,278.14Z"/><path class="cls-5" d="M158.71,260.72s-.66-3.75-.22-5.07,8.6-9.48,8.6-9.48"/><polyline class="cls-5" points="165.77 265.13 167.53 259.4 191.56 242.2"/><path class="cls-5" d="M177.67,269.32s.89-5.51,2-6.4,9.48-2.86,9.48-2.86,12.79-11,15-11,18.31,8.6,22.49,8.16"/><path class="cls-5" d="M233.68,258.07s-2.87,0-1.33,1.78,4.85.88,6.4.44"/><path class="cls-5" d="M216.48,269.54s7.94-4.63,14.33-.88"/><path class="cls-5" d="M228.83,270l-4.41,1.54a30,30,0,0,1,2,4.85l.22,1.33"/><line class="cls-5" x1="202.81" y1="278.14" x2="198.84" y2="286.96"/><path class="cls-14" d="M98.07,312.32s13.9-9,19-12.79,7.71-3.09,10.36-4,15.88,3.08,24.7,14.11,7.93,19.18,6.83,21.39-28.88,19-28.88,19-4-15.88-15.66-25.36S98.07,312.32,98.07,312.32Z"/><path class="cls-14" d="M42.51,338.7s25.73-15.73,30-18.31,9.26-6.1,9.26-6.1,1.35-6.81,7.9-7,12.86,2.34,21.44,7,19.19,21.82,20.32,28.63,3.38,8.92,1.58,13.38-8.58,4.69-9.94,4.69-4.51,2.82-4.51,2.82L70.27,395.26"/><path class="cls-15" d="M276.13,129.09a7.38,7.38,0,0,1-.68-3.45q0-34.12,0-68.24A7.91,7.91,0,0,1,279.8,50q25.63-14.34,51.26-28.72c3.13-1.75,6.25-3.54,9.41-5.25a8.51,8.51,0,0,1,8.69.05l45.6,25.46L409.9,50a7.1,7.1,0,0,1,2.45,2.14l-5,2.82-7.49,4.25c-2.75,1.57-5.5,3.13-8.23,4.72a24.08,24.08,0,0,0-2.85,1.7c0-.23-.13-.38-.23-.54A51,51,0,0,0,369,46.56a50.1,50.1,0,0,0-22.16-6,54,54,0,0,0-5.4.1c-1.35.09-2.69.2-4,.39a45.46,45.46,0,0,0-9.27,2.26q-23.79,8.77-32,32.79a47.52,47.52,0,0,0-2.31,11.75,44.3,44.3,0,0,0,.11,8.46c.13,1.15.22,2.3.42,3.45a56.06,56.06,0,0,0,2.26,8.83,56.67,56.67,0,0,0,3.42,7.68,2.71,2.71,0,0,0-.3.13L294,119.67l-8.21,4.67-8.76,5a1.22,1.22,0,0,1-.67.17h0c0-.1,0-.19-.11-.23h0C276.29,129.19,276.25,129.11,276.13,129.09Z"/><path class="cls-16" d="M388.8,65.67a24.08,24.08,0,0,1,2.85-1.7c2.73-1.59,5.48-3.15,8.23-4.72L407.37,55l5-2.82a6.43,6.43,0,0,1,1.84,4.32c.09,1.4,0,2.81,0,4.21q0,30.91,0,61.83c0,1.42.1,2.84,0,4.27a6.78,6.78,0,0,1-1.08,3.16l-2.5-1.36-6-3.27-8.51-4.69c-1.62-.9-3.23-1.83-4.87-2.69a4.73,4.73,0,0,0-2-.92c0-.23-.15-.27-.29-.34l-21.67-11.93c-.15-.08-.3-.23-.49-.08,0-.17-.13-.25-.26-.32l-1.52-.86-8.66-4.77c-3.83-2.1-7.67-4.19-11.48-6.31-.49-.27-1.1-.39-1.43-.92.53-.32,1.05-.65,1.58-1L353,86l8.4-4.79,5.15-3c.23.08.38-.1.55-.19Z"/><path class="cls-17" d="M389.24,117a4.73,4.73,0,0,1,2,.92c1.64.86,3.25,1.79,4.87,2.69l8.51,4.69,6,3.27,2.5,1.36a7.58,7.58,0,0,1-3.08,2.94L349,167.18a8.5,8.5,0,0,1-5,1.1,7.86,7.86,0,0,1-3.12-1.05L289,138.13c-3.1-1.74-6.2-3.47-9.3-5.22a7.28,7.28,0,0,1-3.29-3.38,1.22,1.22,0,0,0,.67-.17l8.76-5,8.21-4.67,5.73-3.27a2.71,2.71,0,0,1,.3-.13l.25.42a51.34,51.34,0,0,0,14.27,16.1,50.69,50.69,0,0,0,20.73,9.05,45.76,45.76,0,0,0,6.8.83,53.08,53.08,0,0,0,8.17-.22c1.75-.2,3.49-.5,5.22-.85a47.78,47.78,0,0,0,8.05-2.4,51,51,0,0,0,20.64-14.95A57.2,57.2,0,0,0,389.24,117Z"/><path class="cls-17" d="M276.13,129.09c.12,0,.16.1.16.22S276.18,129.16,276.13,129.09Z"/><path class="cls-17" d="M276.29,129.3c.11,0,.12.13.11.23S276.27,129.41,276.29,129.3Z"/><path class="cls-18" d="M389.24,117a57.2,57.2,0,0,1-5.05,7.21,51,51,0,0,1-20.64,14.95,47.78,47.78,0,0,1-8.05,2.4c-1.73.35-3.47.65-5.22.85a53.08,53.08,0,0,1-8.17.22,45.76,45.76,0,0,1-6.8-.83,50.69,50.69,0,0,1-20.73-9.05,51.34,51.34,0,0,1-14.27-16.1l-.25-.42a56.67,56.67,0,0,1-3.42-7.68,56.06,56.06,0,0,1-2.26-8.83c-.2-1.15-.29-2.3-.42-3.45a44.3,44.3,0,0,1-.11-8.46,47.52,47.52,0,0,1,2.31-11.75q8.18-24,32-32.79a45.46,45.46,0,0,1,9.27-2.26c1.33-.19,2.67-.3,4-.39a54,54,0,0,1,5.4-.1,50.1,50.1,0,0,1,22.16,6,51,51,0,0,1,19.58,18.57c.1.16.26.31.23.54L367.14,78c-.17.09-.32.27-.55.19a1.21,1.21,0,0,0-.09-.2A25.19,25.19,0,0,0,347.26,66.2a24.68,24.68,0,0,0-13.6,2.45,25.56,25.56,0,0,0-12.33,32.93,5.55,5.55,0,0,0,1,1.89c-.07.23.1.38.19.54a25.71,25.71,0,0,0,20.2,13.11,24.52,24.52,0,0,0,8.26-.69,25.46,25.46,0,0,0,12.13-6.94,22.6,22.6,0,0,0,3.68-4.8c.19-.15.34,0,.49.08L389,116.7C389.09,116.77,389.27,116.81,389.24,117Z"/><path class="cls-15" d="M322.33,103.47a5.55,5.55,0,0,1-1-1.89,25.56,25.56,0,0,1,12.33-32.93,24.68,24.68,0,0,1,13.6-2.45A25.19,25.19,0,0,1,366.5,78a1.21,1.21,0,0,1,.09.2l-5.15,3L353,86l-8,4.57c-.53.3-1,.63-1.58,1-.26.14-.52.26-.77.41l-8.31,4.74c-2.69,1.53-5.38,3.08-8.07,4.6C325,102,323.7,102.82,322.33,103.47Z"/><path class="cls-17" d="M322.33,103.47c1.37-.65,2.64-1.46,4-2.21,2.69-1.52,5.38-3.07,8.07-4.6l8.31-4.74c.25-.15.51-.27.77-.41.33.53.94.65,1.43.92,3.81,2.12,7.65,4.21,11.48,6.31l8.66,4.77,1.52.86c.13.07.25.15.26.32a22.6,22.6,0,0,1-3.68,4.8A25.46,25.46,0,0,1,351,116.43a24.52,24.52,0,0,1-8.26.69A25.71,25.71,0,0,1,322.52,104C322.43,103.85,322.26,103.7,322.33,103.47Z"/></g></svg>